<?xml version="1.0" encoding="UTF-8" standalone="no"?>
<!-- Created with Inkscape (http://www.inkscape.org/) -->

<svg
   xmlns:dc="http://purl.org/dc/elements/1.1/"
   xmlns:cc="http://creativecommons.org/ns#"
   xmlns:rdf="http://www.w3.org/1999/02/22-rdf-syntax-ns#"
   xmlns:svg="http://www.w3.org/2000/svg"
   xmlns="http://www.w3.org/2000/svg"
   xmlns:sodipodi="http://sodipodi.sourceforge.net/DTD/sodipodi-0.dtd"
   xmlns:inkscape="http://www.inkscape.org/namespaces/inkscape"
   id="svg2"
   version="1.1"
   inkscape:version="0.48.4 r9939"
   width="871.65002"
   height="653.75"
   xml:space="preserve"
   sodipodi:docname="Hauptmenü.pdf"><metadata
     id="metadata8"><rdf:RDF><cc:Work
         rdf:about=""><dc:format>image/svg+xml</dc:format><dc:type
           rdf:resource="http://purl.org/dc/dcmitype/StillImage" /><dc:title></dc:title></cc:Work></rdf:RDF></metadata><defs
     id="defs6"><clipPath
       clipPathUnits="userSpaceOnUse"
       id="clipPath18"><path
         d="M 0,595 0,0 842,0 842,595 0,595 z"
         id="path20"
         inkscape:connector-curvature="0" /></clipPath><clipPath
       clipPathUnits="userSpaceOnUse"
       id="clipPath28"><path
         d="M 0,595 0,0 842,0 842,595 0,595 z"
         id="path30"
         inkscape:connector-curvature="0" /></clipPath><clipPath
       clipPathUnits="userSpaceOnUse"
       id="clipPath36"><path
         d="m 72.33,559 697.34,0 0,-523 -697.34,0 0,523 z"
         id="path38"
         inkscape:connector-curvature="0" /></clipPath><clipPath
       clipPathUnits="userSpaceOnUse"
       id="clipPath44"><path
         d="m 72.33,559 697.34,0 0,-523 -697.34,0 0,523 z"
         id="path46"
         inkscape:connector-curvature="0" /></clipPath><clipPath
       clipPathUnits="userSpaceOnUse"
       id="clipPath56"><path
         d="m 72.33,559 0,-523 697.34,0 0,523 -697.34,0 z"
         id="path58"
         inkscape:connector-curvature="0" /></clipPath><clipPath
       clipPathUnits="userSpaceOnUse"
       id="clipPath64"><path
         d="m 72.33,559 0,-523 697.34,0 0,523 -697.34,0 z"
         id="path66"
         inkscape:connector-curvature="0" /></clipPath><clipPath
       clipPathUnits="userSpaceOnUse"
       id="clipPath102"><path
         d="m 72.33,559 0,-523 697.34,0 0,523 -697.34,0 z"
         id="path104"
         inkscape:connector-curvature="0" /></clipPath><clipPath
       clipPathUnits="userSpaceOnUse"
       id="clipPath110"><path
         d="m 72.33,559 0,-523 697.34,0 0,523 -697.34,0 z"
         id="path112"
         inkscape:connector-curvature="0" /></clipPath><clipPath
       clipPathUnits="userSpaceOnUse"
       id="clipPath122"><path
         d="m 72.33,559 0,-523 697.34,0 0,523 -697.34,0 z"
         id="path124"
         inkscape:connector-curvature="0" /></clipPath><clipPath
       clipPathUnits="userSpaceOnUse"
       id="clipPath130"><path
         d="m 72.33,559 0,-523 697.34,0 0,523 -697.34,0 z"
         id="path132"
         inkscape:connector-curvature="0" /></clipPath><clipPath
       clipPathUnits="userSpaceOnUse"
       id="clipPath138"><path
         d="m 72.33,559 0,-523 697.34,0 0,523 -697.34,0 z"
         id="path140"
         inkscape:connector-curvature="0" /></clipPath><clipPath
       clipPathUnits="userSpaceOnUse"
       id="clipPath146"><path
         d="m 253.64,454.4 140.34,0 0,-140.34 -140.34,0 0,140.34 z"
         id="path148"
         inkscape:connector-curvature="0" /></clipPath><clipPath
       clipPathUnits="userSpaceOnUse"
       id="clipPath158"><path
         d="m 253.64,454.4 0,-140.34 140.34,0 0,140.34 -140.34,0 z"
         id="path160"
         inkscape:connector-curvature="0" /></clipPath><clipPath
       clipPathUnits="userSpaceOnUse"
       id="clipPath166"><path
         d="m 253.64,454.4 0,-140.34 140.34,0 0,140.34 -140.34,0 z"
         id="path168"
         inkscape:connector-curvature="0" /></clipPath><clipPath
       clipPathUnits="userSpaceOnUse"
       id="clipPath178"><path
         d="m 253.64,454.4 0,-140.34 140.34,0 0,140.34 -140.34,0 z"
         id="path180"
         inkscape:connector-curvature="0" /></clipPath><clipPath
       clipPathUnits="userSpaceOnUse"
       id="clipPath186"><path
         d="m 253.64,454.4 0,-140.34 140.34,0 0,140.34 -140.34,0 z"
         id="path188"
         inkscape:connector-curvature="0" /></clipPath><clipPath
       clipPathUnits="userSpaceOnUse"
       id="clipPath194"><path
         d="m 253.64,454.4 0,-140.34 140.34,0 0,140.34 -140.34,0 z"
         id="path196"
         inkscape:connector-curvature="0" /></clipPath><clipPath
       clipPathUnits="userSpaceOnUse"
       id="clipPath202"><path
         d="m 253.64,454.4 0,-140.34 140.34,0 0,140.34 -140.34,0 z"
         id="path204"
         inkscape:connector-curvature="0" /></clipPath><clipPath
       clipPathUnits="userSpaceOnUse"
       id="clipPath210"><path
         d="m 72.33,559 0,-523 697.34,0 0,523 -697.34,0 z"
         id="path212"
         inkscape:connector-curvature="0" /></clipPath><clipPath
       clipPathUnits="userSpaceOnUse"
       id="clipPath218"><path
         d="m 421,454.4 140.34,0 0,-140.34 -140.34,0 0,140.34 z"
         id="path220"
         inkscape:connector-curvature="0" /></clipPath><clipPath
       clipPathUnits="userSpaceOnUse"
       id="clipPath230"><path
         d="m 421,454.4 0,-140.34 140.34,0 0,140.34 -140.34,0 z"
         id="path232"
         inkscape:connector-curvature="0" /></clipPath><clipPath
       clipPathUnits="userSpaceOnUse"
       id="clipPath238"><path
         d="m 421,454.4 0,-140.34 140.34,0 0,140.34 -140.34,0 z"
         id="path240"
         inkscape:connector-curvature="0" /></clipPath><clipPath
       clipPathUnits="userSpaceOnUse"
       id="clipPath250"><path
         d="m 421,454.4 0,-140.34 140.34,0 0,140.34 -140.34,0 z"
         id="path252"
         inkscape:connector-curvature="0" /></clipPath><clipPath
       clipPathUnits="userSpaceOnUse"
       id="clipPath258"><path
         d="m 421,454.4 0,-140.34 140.34,0 0,140.34 -140.34,0 z"
         id="path260"
         inkscape:connector-curvature="0" /></clipPath><clipPath
       clipPathUnits="userSpaceOnUse"
       id="clipPath266"><path
         d="m 421,454.4 0,-140.34 140.34,0 0,140.34 -140.34,0 z"
         id="path268"
         inkscape:connector-curvature="0" /></clipPath><clipPath
       clipPathUnits="userSpaceOnUse"
       id="clipPath274"><path
         d="m 421,454.4 0,-140.34 140.34,0 0,140.34 -140.34,0 z"
         id="path276"
         inkscape:connector-curvature="0" /></clipPath><clipPath
       clipPathUnits="userSpaceOnUse"
       id="clipPath282"><path
         d="m 72.33,559 0,-523 697.34,0 0,523 -697.34,0 z"
         id="path284"
         inkscape:connector-curvature="0" /></clipPath><clipPath
       clipPathUnits="userSpaceOnUse"
       id="clipPath290"><path
         d="m 72.33,559 0,-523 697.34,0 0,523 -697.34,0 z"
         id="path292"
         inkscape:connector-curvature="0" /></clipPath><clipPath
       clipPathUnits="userSpaceOnUse"
       id="clipPath298"><path
         d="M 0,595 0,0 842,0 842,595 0,595 z"
         id="path300"
         inkscape:connector-curvature="0" /></clipPath><clipPath
       clipPathUnits="userSpaceOnUse"
       id="clipPath306"><path
         d="M 0,595 0,0 842,0 842,595 0,595 z"
         id="path308"
         inkscape:connector-curvature="0" /></clipPath><clipPath
       clipPathUnits="userSpaceOnUse"
       id="clipPath314"><path
         d="M 0,595 0,0 842,0 842,595 0,595 z"
         id="path316"
         inkscape:connector-curvature="0" /></clipPath><clipPath
       clipPathUnits="userSpaceOnUse"
       id="clipPath322"><path
         d="M 0,595 0,0 842,0 842,595 0,595 z"
         id="path324"
         inkscape:connector-curvature="0" /></clipPath><clipPath
       clipPathUnits="userSpaceOnUse"
       id="clipPath330"><path
         d="M 0,595 0,0 842,0 842,595 0,595 z"
         id="path332"
         inkscape:connector-curvature="0" /></clipPath></defs><sodipodi:namedview
     pagecolor="#ffffff"
     bordercolor="#666666"
     borderopacity="1"
     objecttolerance="10"
     gridtolerance="10"
     guidetolerance="10"
     inkscape:pageopacity="0"
     inkscape:pageshadow="2"
     inkscape:window-width="1855"
     inkscape:window-height="1056"
     id="namedview4"
     showgrid="false"
     fit-margin-top="0"
     fit-margin-left="0"
     fit-margin-right="0"
     fit-margin-bottom="0"
     inkscape:zoom="0.89488478"
     inkscape:cx="359.46725"
     inkscape:cy="419.27979"
     inkscape:window-x="65"
     inkscape:window-y="24"
     inkscape:window-maximized="1"
     inkscape:current-layer="g10" /><g
     id="g10"
     inkscape:groupmode="layer"
     inkscape:label="Hauptmenü"
     transform="matrix(1.25,0,0,-1.25,-90.425,698.75)"><g
       id="g12" /><g
       id="g14"><g
         id="g16"
         clip-path="url(#clipPath18)"><g
           id="g22" /><g
           id="g24"><g
             id="g26"
             clip-path="url(#clipPath28)" /></g><g
           id="g32"><g
             id="g34"
             clip-path="url(#clipPath36)" /></g><g
           id="g40"><g
             id="g42"
             clip-path="url(#clipPath44)"><path
               d="m 73.21,558.13 c 12.48,-1.16 25.55,-1.46 39.2,-0.87 11.34,0.58 22.11,0.58 32.3,0 9.49,-0.59 19.57,-0.59 30.22,0 9.19,0.58 17.8,0.58 25.83,0 15.71,-0.59 32.01,-0.59 48.89,0 13.45,0.58 26.32,0.58 38.61,0 12.3,-0.59 25.18,-0.59 38.64,0 11.78,0.58 22.96,0.58 33.57,0 14.26,-0.59 29.09,-0.59 44.51,0 12.71,0.58 24.83,0.58 36.37,0 6.01,-0.59 12.6,-0.59 19.77,0 17.8,0.58 35.02,0.58 51.66,0 12.3,-0.59 25.18,-0.59 38.64,0 10.58,0.58 20.57,0.58 29.99,0 16.65,-0.59 33.88,-0.59 51.68,0 6.84,0.58 13.1,0.58 18.78,0 9.53,-0.59 19.65,-0.59 30.35,0 12.55,0.58 24.53,0.58 35.92,0 9.48,-0.59 19.55,-0.59 30.19,0 6.24,-0.59 13.06,-0.29 20.46,0.87 -1.16,-16.72 -1.45,-32.87 -0.87,-48.43 0.59,-6.84 0.59,-14.26 0,-22.27 -0.58,-10.78 -0.58,-20.99 0,-30.61 0.59,-11.54 0.59,-23.66 0,-36.36 -0.58,-6.96 -0.58,-13.33 0,-19.13 0.59,-16.04 0.59,-32.65 0,-49.85 -0.58,-16.02 -0.58,-31.46 0,-46.32 0.59,-9.54 0.59,-19.67 0,-30.38 -0.58,-14.63 -0.58,-28.67 0,-42.13 0.59,-15.93 0.59,-32.44 0,-49.53 -0.58,-8.72 -0.58,-16.86 0,-24.42 0.59,-12.67 0.59,-25.92 0,-39.75 -0.58,-9.24 -0.58,-17.91 0,-26 0.59,-18.11 0.87,-36.8 0.87,-56.08 -10.47,0 -20.36,0.29 -29.68,0.87 -5.53,0.59 -11.63,0.59 -18.32,0 -13.23,-0.58 -25.88,-0.58 -37.95,0 -13.17,0.59 -26.92,0.59 -41.25,0 -8.72,-0.58 -16.86,-0.58 -24.41,0 -12.9,0.59 -26.38,0.59 -40.44,0 -10.7,-0.58 -20.82,-0.58 -30.36,0 -15.46,0.59 -31.5,0.59 -48.12,0 -13.74,-0.58 -26.89,-0.58 -39.47,0 -9.22,0.59 -19.02,0.59 -29.4,0 -6.49,-0.58 -12.4,-0.58 -17.73,0 -8.97,0.59 -18.52,0.59 -28.66,0 -15.08,-0.58 -29.58,-0.58 -43.51,0 -15.49,0.59 -31.55,0.59 -48.2,0 -17.52,-0.58 -34.45,-0.58 -50.8,0 -15.17,0.59 -30.92,0.59 -47.25,0 -8.65,-0.58 -16.71,-0.58 -24.19,0 -12.58,0.59 -25.73,0.59 -39.47,0 -8.34,-0.58 -16.09,-0.58 -23.27,0 -11.62,-0.58 -22.65,-0.87 -33.1,-0.87 0,15.96 0.28,32.5 0.87,49.62 0.58,16.49 0.58,32.41 0,47.74 -0.59,14.9 -0.59,30.37 0,46.43 0.58,13.8 0.58,27.03 0,39.67 -0.59,10.96 -0.59,22.5 0,34.62 0.58,10.16 0.58,19.74 0,28.73 -0.59,12.87 -0.59,26.32 0,40.34 0.58,13.55 0.58,26.51 0,38.89 -0.59,14.21 -0.59,29 0,44.37 0.58,16.2 0.58,31.81 0,46.84 -0.59,9.98 -0.59,20.55 0,31.69 0.58,12.66 0.58,24.74 0,36.24 0.58,12.61 0.29,24.63 -0.87,36.08"
               style="fill:#ffffff;fill-opacity:1;fill-rule:nonzero;stroke:none"
               id="path48"
               inkscape:connector-curvature="0" /><path
               d="m 73.21,558.13 c 13.79,-1.16 28.15,-1.46 43.11,-0.87 16.46,0.58 32.35,0.58 47.66,0 8.33,-0.59 17.25,-0.59 26.74,0 7.22,0.58 13.86,0.58 19.92,0 10.57,-0.59 21.73,-0.59 33.47,0 16.85,0.58 33.11,0.58 48.8,0 16.57,-0.59 33.72,-0.59 51.45,0 13.31,0.58 26.04,0.58 38.19,0 12.7,-0.59 25.98,-0.59 39.85,0 7.64,0.58 14.71,0.58 21.2,0 8.37,-0.59 17.32,-0.59 26.86,0 7.92,0.58 15.26,0.58 22.02,0 15.52,-0.59 31.62,-0.59 48.3,0 13.78,0.58 26.98,0.58 39.6,0 8.1,-0.59 16.79,-0.59 26.06,0 11.05,0.58 21.53,0.58 31.42,0 8.56,-0.59 17.71,-0.59 27.44,0 15.77,0.58 30.95,0.58 45.55,0 11.96,-0.59 24.5,-0.59 37.62,0 6.2,-0.59 12.97,-0.29 20.32,0.87 -1.16,-14.41 -1.45,-28.23 -0.87,-41.48 0.59,-8.03 0.59,-16.64 0,-25.83 -0.58,-12.13 -0.58,-23.68 0,-34.64 0.59,-5.79 0.59,-12.16 0,-19.11 -0.58,-7 -0.58,-13.43 0,-19.27 0.59,-10.61 0.59,-21.8 0,-33.57 -0.58,-10.81 -0.58,-21.03 0,-30.68 0.59,-14.89 0.59,-30.36 0,-46.42 -0.58,-18.01 -0.58,-35.45 0,-52.3 0.59,-14.72 0.59,-30.03 0,-45.92 -0.58,-7.87 -0.58,-15.15 0,-21.85 0.59,-8.4 0.59,-17.38 0,-26.94 -0.58,-14.76 -0.58,-28.94 0,-42.54 0.59,-15.63 0.59,-31.84 0,-48.62 0.59,-10.12 0.87,-20.81 0.87,-32.09 -15.6,0 -30.63,0.29 -45.07,0.87 -16.78,0.59 -34.13,0.59 -52.07,0 -11.04,-0.58 -21.5,-0.58 -31.38,0 -10.56,0.59 -21.7,0.59 -33.42,0 -9.7,-0.58 -18.82,-0.58 -27.35,0 -16.66,0.59 -33.9,0.59 -51.72,0 -9.44,-0.58 -18.29,-0.58 -26.56,0 -15.62,0.59 -31.83,0.59 -48.62,0 -10.92,-0.58 -21.27,-0.58 -31.03,0 -11.41,0.59 -23.4,0.59 -35.97,0 -11.09,-0.58 -21.59,-0.58 -31.52,0 -12.01,0.59 -24.6,0.59 -37.78,0 -15,-0.58 -29.42,-0.58 -43.27,0 -12.36,0.59 -25.3,0.59 -38.83,0 -15.39,-0.58 -30.19,-0.58 -44.41,0 -11.85,0.59 -24.27,0.59 -37.28,0 -9.27,-0.58 -17.96,-0.58 -26.07,0 -10.03,0.59 -20.65,0.59 -31.84,0 -7.71,-0.58 -14.84,-0.87 -21.39,-0.87 0,7.35 0.28,15.27 0.87,23.78 0.58,12.24 0.58,23.9 0,34.98 -0.59,12.93 -0.59,26.43 0,40.51 0.58,13.54 0.58,26.5 0,38.88 -0.59,6.38 -0.59,13.35 0,20.89 0.58,16.98 0.58,33.39 0,49.2 -0.59,7.8 -0.59,16.19 0,25.15 0.58,11.36 0.58,22.15 0,32.35 -0.59,6.87 -0.59,14.32 0,22.35 0.58,15.65 0.58,30.71 0,45.19 -0.59,5.34 -0.59,11.26 0,17.75 0.58,11.41 0.58,22.23 0,32.47 -0.59,9.1 -0.59,18.77 0,29.02 0.58,10.24 0.58,19.9 0,28.97 0.58,27.17 0.29,53.76 -0.87,79.77"
               style="fill:none;stroke:#000000;stroke-width:1.74000001;stroke-linecap:round;stroke-linejoin:round;stroke-miterlimit:10;stroke-opacity:1;stroke-dasharray:none"
               id="path50"
               inkscape:connector-curvature="0" /></g></g><g
           id="g52"><g
             id="g54"
             clip-path="url(#clipPath56)" /></g><g
           id="g60"><g
             id="g62"
             clip-path="url(#clipPath64)"><path
               d="m 73.21,558.13 c 12.48,-1.16 25.55,-1.46 39.2,-0.87 11.34,0.58 22.11,0.58 32.3,0 9.49,-0.59 19.57,-0.59 30.22,0 9.19,0.58 17.8,0.58 25.83,0 15.71,-0.59 32.01,-0.59 48.89,0 13.45,0.58 26.32,0.58 38.61,0 12.3,-0.59 25.18,-0.59 38.64,0 11.78,0.58 22.96,0.58 33.57,0 14.26,-0.59 29.09,-0.59 44.51,0 12.71,0.58 24.83,0.58 36.37,0 6.01,-0.59 12.6,-0.59 19.77,0 17.8,0.58 35.02,0.58 51.66,0 12.3,-0.59 25.18,-0.59 38.64,0 10.58,0.58 20.57,0.58 29.99,0 16.65,-0.59 33.88,-0.59 51.68,0 6.84,0.58 13.1,0.58 18.78,0 9.53,-0.59 19.65,-0.59 30.35,0 12.55,0.58 24.53,0.58 35.92,0 9.48,-0.59 19.55,-0.59 30.19,0 6.24,-0.59 13.06,-0.29 20.46,0.87 -1.16,-7.7 -1.16,-22.52 0,-44.46 -8,-0.58 -15.42,-0.58 -22.26,0 -9.63,0.59 -19.83,0.59 -30.62,0 -12.7,-0.58 -24.82,-0.58 -36.36,0 -5.79,0.59 -12.17,0.59 -19.13,0 -17.2,-0.58 -33.81,-0.58 -49.85,0 -14.85,0.59 -30.29,0.59 -46.31,0 -10.71,-0.58 -20.84,-0.58 -30.39,0 -13.46,0.59 -27.5,0.59 -42.13,0 -17.09,-0.58 -33.6,-0.58 -49.53,0 -7.56,0.59 -15.7,0.59 -24.42,0 -13.83,-0.58 -27.08,-0.58 -39.74,0 -8.09,0.59 -16.76,0.59 -26,0 -14.56,-0.58 -28.53,-0.58 -41.93,0 -9.31,0.59 -19.21,0.59 -29.68,0 -6.69,-0.58 -12.8,-0.58 -18.33,0 -12.06,0.59 -24.71,0.59 -37.94,0 -14.33,-0.58 -28.08,-0.58 -41.25,0 -7.56,0.59 -15.7,0.59 -24.42,0 -14.06,-0.58 -27.54,-0.58 -40.44,0 -15.53,-0.58 -30.48,-0.58 -44.85,0 0,6.54 0,21.36 0,44.46"
               style="fill:#efebe7;fill-opacity:1;fill-rule:nonzero;stroke:none"
               id="path68"
               inkscape:connector-curvature="0" /><path
               d="m 73.21,558.13 c 13.79,-1.16 28.15,-1.46 43.11,-0.87 16.46,0.58 32.35,0.58 47.66,0 8.33,-0.59 17.25,-0.59 26.74,0 7.22,0.58 13.86,0.58 19.92,0 10.57,-0.59 21.73,-0.59 33.47,0 16.85,0.58 33.11,0.58 48.8,0 16.57,-0.59 33.72,-0.59 51.45,0 13.31,0.58 26.04,0.58 38.19,0 12.7,-0.59 25.98,-0.59 39.85,0 7.64,0.58 14.71,0.58 21.2,0 8.37,-0.59 17.32,-0.59 26.86,0 7.92,0.58 15.26,0.58 22.02,0 15.52,-0.59 31.62,-0.59 48.3,0 13.78,0.58 26.98,0.58 39.6,0 8.1,-0.59 16.79,-0.59 26.06,0 11.05,0.58 21.53,0.58 31.42,0 8.56,-0.59 17.71,-0.59 27.44,0 15.77,0.58 30.95,0.58 45.55,0 11.96,-0.59 24.5,-0.59 37.62,0 6.2,-0.59 12.97,-0.29 20.32,0.87 -1.16,-7.7 -1.16,-22.52 0,-44.46 -9.19,-0.58 -17.8,-0.58 -25.83,0 -10.97,0.59 -22.51,0.59 -34.64,0 -6.95,-0.58 -13.32,-0.58 -19.11,0 -5.84,0.59 -12.26,0.59 -19.27,0 -11.77,-0.58 -22.96,-0.58 -33.57,0 -9.64,0.59 -19.87,0.59 -30.68,0 -16.05,-0.58 -31.52,-0.58 -46.42,0 -16.85,0.59 -34.28,0.59 -52.3,0 -15.88,-0.58 -31.19,-0.58 -45.91,0 -6.71,0.59 -14,0.59 -21.86,0 -9.56,-0.58 -18.54,-0.58 -26.94,0 -13.6,0.59 -27.78,0.59 -42.54,0 -16.79,-0.58 -33,-0.58 -48.62,0 -14.45,0.59 -29.47,0.59 -45.08,0 -17.94,-0.58 -35.29,-0.58 -52.06,0 -9.89,0.59 -20.35,0.59 -31.39,0 -11.72,-0.58 -22.86,-0.58 -33.42,0 -8.53,0.59 -17.65,0.59 -27.35,0 -20.11,-0.58 -39.64,-0.58 -58.59,0 0,8.27 0.28,17.13 0.87,26.56 -0.59,5.39 -0.87,11.35 -0.87,17.9"
               style="fill:none;stroke:#000000;stroke-width:1.74000001;stroke-linecap:round;stroke-linejoin:round;stroke-miterlimit:10;stroke-opacity:1;stroke-dasharray:none"
               id="path70"
               inkscape:connector-curvature="0" /><path
               d="m 150.78,536.34 c 12.49,-0.59 25.56,-0.59 39.21,0 11.34,0.58 22.11,0.58 32.29,0 9.5,-0.59 19.58,-0.59 30.23,0 9.19,0.58 17.8,0.58 25.83,0 15.71,-0.59 32.01,-0.59 48.88,0 13.46,0.58 26.33,0.58 38.62,0 12.3,-0.59 25.18,-0.59 38.64,0 11.77,0.58 22.96,0.58 33.57,0 14.26,-0.59 29.09,-0.59 44.51,0 12.71,0.58 24.83,0.58 36.37,0 6.01,-0.59 12.6,-0.59 19.77,0 17.8,0.58 35.02,0.58 51.66,0 12.3,-0.59 25.18,-0.59 38.64,0 10.58,0.58 20.57,0.58 29.99,0 9,-0.59 18.58,-0.59 28.74,0 0.58,-1.89 0.58,-7.41 0,-16.56 -6.84,-0.59 -13.1,-0.59 -18.77,0 -9.54,0.58 -19.65,0.58 -30.36,0 -12.55,-0.59 -24.52,-0.59 -35.92,0 -9.48,0.58 -19.54,0.58 -30.19,0 -16.72,-0.59 -32.86,-0.59 -48.42,0 -6.84,0.58 -14.27,0.58 -22.27,0 -10.79,-0.59 -20.99,-0.59 -30.62,0 -11.53,0.58 -23.66,0.58 -36.35,0 -6.96,-0.59 -13.34,-0.59 -19.14,0 -16.04,0.58 -32.65,0.58 -49.84,0 -16.02,-0.59 -31.46,-0.59 -46.32,0 -9.55,0.58 -19.67,0.58 -30.39,0 -14.62,-0.59 -28.67,-0.59 -42.13,0 -15.93,0.58 -32.43,0.58 -49.53,0 -8.72,-0.59 -16.86,-0.59 -24.42,0 -8.01,-0.59 -15.43,-0.59 -22.28,0 0.59,3.05 0.59,8.57 0,16.56"
               style="fill:#ffffff;fill-opacity:1;fill-rule:nonzero;stroke:none"
               id="path72"
               inkscape:connector-curvature="0" /><path
               d="m 150.78,536.34 c 13.79,-0.59 28.16,-0.59 43.11,0 16.47,0.58 32.36,0.58 47.67,0 8.33,-0.59 17.25,-0.59 26.74,0 7.22,0.58 13.86,0.58 19.92,0 10.57,-0.59 21.73,-0.59 33.47,0 16.85,0.58 33.11,0.58 48.79,0 16.58,-0.59 33.73,-0.59 51.46,0 13.31,0.58 26.04,0.58 38.19,0 12.7,-0.59 25.98,-0.59 39.85,0 7.65,0.58 14.71,0.58 21.19,0 8.38,-0.59 17.33,-0.59 26.87,0 7.92,0.58 15.26,0.58 22.02,0 15.52,-0.59 31.62,-0.59 48.3,0 13.78,0.58 26.98,0.58 39.59,0 9.35,-0.59 19.27,-0.59 29.78,0 0.58,-1.89 0.58,-7.41 0,-16.56 -11.05,-0.59 -21.53,-0.59 -31.42,0 -8.56,0.58 -17.71,0.58 -27.44,0 -15.77,-0.59 -30.95,-0.59 -45.56,0 -11.95,0.58 -24.49,0.58 -37.61,0 -14.41,-0.59 -28.23,-0.59 -41.48,0 -8.03,0.58 -16.64,0.58 -25.84,0 -12.12,-0.59 -23.67,-0.59 -34.63,0 -5.79,0.58 -12.16,0.58 -19.11,0 -7,-0.59 -13.43,-0.59 -19.27,0 -10.61,0.58 -21.8,0.58 -33.57,0 -10.81,-0.59 -21.04,-0.59 -30.68,0 -14.89,0.58 -30.37,0.58 -46.42,0 -18.02,-0.59 -35.45,-0.59 -52.3,0 -14.73,0.58 -30.03,0.58 -45.92,0 -7.87,-0.59 -15.15,-0.59 -21.86,0 -8.52,-0.59 -16.47,-0.59 -23.84,0 0.59,3.05 0.59,8.57 0,16.56"
               style="fill:none;stroke:#000000;stroke-width:1.74000001;stroke-linecap:round;stroke-linejoin:round;stroke-miterlimit:10;stroke-opacity:1;stroke-dasharray:none"
               id="path74"
               inkscape:connector-curvature="0" /><path
               d="m 704.29,534.59 c 7.85,-0.58 25.28,-0.58 52.3,0 1.8,0.23 3.22,-1.48 4.93,-2.04 1.45,-1.45 1.98,-3.49 2.05,-4.93 0.07,-1.17 0.05,-3.86 -2.05,-4.93 -1.5,-2.1 -3.81,-1.82 -4.93,-2.04 -9,-0.59 -26.44,-0.59 -52.3,0 -2.16,-0.68 -4.3,0.99 -4.93,2.04 -1.19,2.05 -1.29,2.43 -2.04,4.93 -0.23,1.48 1.47,4.14 2.04,4.93 1.55,1.75 3.44,2.3 4.93,2.04"
               style="fill:#ffffff;fill-opacity:1;fill-rule:nonzero;stroke:none"
               id="path76"
               inkscape:connector-curvature="0" /><path
               d="m 704.29,534.59 c 7.85,-0.58 25.28,-0.58 52.3,0 2.57,0.41 2.92,-0.71 4.93,-2.04 1.96,-2.09 2.21,-3.25 2.05,-4.93 -0.69,-1.53 -1.43,-4.34 -2.05,-4.93 -1.02,-0.82 -3.17,-1.67 -4.93,-2.04 -9,-0.59 -26.44,-0.59 -52.3,0 -1.79,-0.33 -4.12,0.79 -4.93,2.04 -2.05,2.04 -2.11,3.21 -2.04,4.93 0.58,0.98 1.29,4.27 2.04,4.93 0.91,0.92 3.77,1.53 4.93,2.04"
               style="fill:none;stroke:#000000;stroke-width:1.74000001;stroke-linecap:round;stroke-linejoin:round;stroke-miterlimit:4;stroke-opacity:1;stroke-dasharray:none"
               id="path78"
               inkscape:connector-curvature="0" /><path
               d="m 706.3,525.65 c 0.66,0.5 1.24,-0.09 1.74,-1.74 0.5,0.66 -0.08,1.24 -1.74,1.74"
               style="fill:none;stroke:#000000;stroke-width:2.61999989;stroke-linecap:round;stroke-linejoin:round;stroke-miterlimit:4;stroke-opacity:1;stroke-dasharray:none"
               id="path80"
               inkscape:connector-curvature="0" /><path
               d="m 78.87,528.99 c 1.36,-0.24 3.32,-2.29 5.87,-6.16 0.59,0.91 0.59,2.16 0,3.75 1.35,0.58 3.46,0.58 6.33,0 0.59,1.07 0.59,2.64 0,4.69 -0.18,0.59 -2.29,0.59 -6.33,0 0.59,0.92 0.59,2.17 0,3.76 -0.19,-0.22 -2.15,-2.23 -5.87,-6.04"
               style="fill:#ffffff;fill-opacity:1;fill-rule:nonzero;stroke:none"
               id="path82"
               inkscape:connector-curvature="0" /><path
               d="m 78.87,528.99 c 1.36,-0.24 3.32,-2.29 5.87,-6.16 0.59,0.91 0.59,2.16 0,3.75 1.35,0.58 3.46,0.58 6.33,0 0.59,1.07 0.59,2.64 0,4.69 -0.18,0.59 -2.29,0.59 -6.33,0 0.59,0.92 0.59,2.17 0,3.76 -0.19,-0.22 -2.15,-2.23 -5.87,-6.04"
               style="fill:none;stroke:#000000;stroke-width:0.87167001;stroke-linecap:round;stroke-linejoin:round;stroke-miterlimit:4;stroke-opacity:1;stroke-dasharray:none"
               id="path84"
               inkscape:connector-curvature="0" /><path
               d="m 109.03,528.99 c -0.2,-0.24 -2.15,-2.29 -5.88,-6.16 0.59,0.91 0.59,2.16 0,3.75 -0.18,0.58 -2.29,0.58 -6.32,0 0.58,1.07 0.58,2.64 0,4.69 1.34,0.59 3.45,0.59 6.32,0 0.59,0.92 0.59,2.17 0,3.76 1.36,-0.22 3.32,-2.23 5.88,-6.04"
               style="fill:#ffffff;fill-opacity:1;fill-rule:nonzero;stroke:none"
               id="path86"
               inkscape:connector-curvature="0" /><path
               d="m 109.03,528.99 c -0.2,-0.24 -2.15,-2.29 -5.88,-6.16 0.59,0.91 0.59,2.16 0,3.75 -0.18,0.58 -2.29,0.58 -6.32,0 0.58,1.07 0.58,2.64 0,4.69 1.34,0.59 3.45,0.59 6.32,0 0.59,0.92 0.59,2.17 0,3.76 1.36,-0.22 3.32,-2.23 5.88,-6.04"
               style="fill:none;stroke:#000000;stroke-width:0.87167001;stroke-linecap:round;stroke-linejoin:round;stroke-miterlimit:4;stroke-opacity:1;stroke-dasharray:none"
               id="path88"
               inkscape:connector-curvature="0" /><path
               d="m 138.84,534.16 c -0.06,0.06 -1.81,-1.33 -5.23,-4.19 0.53,0.59 1.02,0.59 1.45,0 0.58,-0.17 0.58,-2.26 0,-6.27 1.55,0.58 4.07,0.58 7.55,0 0.59,1.33 0.59,3.43 0,6.27 0.54,0.59 1.02,0.59 1.46,0 -0.06,1.1 -1.81,2.5 -5.23,4.19 m -1.04,-6.11 c 0.64,0.58 1.33,0.58 2.09,0 0.58,0.14 0.58,-1.31 0,-4.35 0.52,0.58 -0.18,0.58 -2.09,0 0.58,1.01 0.58,2.46 0,4.35"
               style="fill:#ffffff;fill-opacity:1;fill-rule:nonzero;stroke:none"
               id="path90"
               inkscape:connector-curvature="0" /><path
               d="m 138.84,534.16 c -0.06,0.06 -1.81,-1.33 -5.23,-4.19 0.53,0.59 1.02,0.59 1.45,0 0.58,-0.17 0.58,-2.26 0,-6.27 1.55,0.58 4.07,0.58 7.55,0 0.59,1.33 0.59,3.43 0,6.27 0.54,0.59 1.02,0.59 1.46,0 -0.06,1.1 -1.81,2.5 -5.23,4.19 m -1.04,-6.11 c 0.64,0.58 1.33,0.58 2.09,0 0.58,0.14 0.58,-1.31 0,-4.35 0.52,0.58 -0.18,0.58 -2.09,0 0.58,1.01 0.58,2.46 0,4.35"
               style="fill:none;stroke:#000000;stroke-width:0.87167001;stroke-linecap:round;stroke-linejoin:round;stroke-miterlimit:4;stroke-opacity:1;stroke-dasharray:none"
               id="path92"
               inkscape:connector-curvature="0" /><path
               d="m 706.91,528.06 c 0.41,-2.33 -1.8,-2.31 -3.05,-3.05 -1.73,-0.7 -2.22,1.2 -3.06,3.05 0.25,2.36 1,3.69 3.06,3.05 2.32,-0.24 2.61,-1.21 3.05,-3.05"
               style="fill:none;stroke:#000000;stroke-width:1.74000001;stroke-linecap:round;stroke-linejoin:round;stroke-miterlimit:4;stroke-opacity:1;stroke-dasharray:none"
               id="path94"
               inkscape:connector-curvature="0" /><path
               d="m 125.94,534.16 c 0.52,0.52 -0.01,-0.02 -1.59,-1.62 -0.53,0.26 -2.63,2.21 -3.64,1.46 -2.95,-0.69 -4.4,-2.47 -5.23,-5.15 0.25,-2.16 1.95,-4.51 5.23,-5.15 0.64,0.59 1.32,0.72 2.04,0.4 0.62,0.6 1.17,0.97 1.66,1.11 0.6,0.61 0.98,1.16 1.12,1.63 0.94,0.38 -2.13,1.33 -1.86,0.77 0.63,0.65 0.4,0.32 -0.68,-1 0.65,0.63 0.31,0.4 -1.02,-0.68 0.65,0.59 0.24,0.51 -1.26,-0.25 -2.15,-0.54 -3.08,1.09 -3.22,3.17 -0.45,1.75 0.66,3.94 3.22,3.16 0.81,0.21 2.24,-1.21 2.24,-0.89 0.48,0.47 -0.13,-0.15 -1.84,-1.88 1.1,0.58 2.71,0.58 4.83,0 0.58,1.11 0.58,2.75 0,4.92"
               style="fill:none;stroke:#000000;stroke-width:0.87167001;stroke-linecap:round;stroke-linejoin:round;stroke-miterlimit:4;stroke-opacity:1;stroke-dasharray:none"
               id="path96"
               inkscape:connector-curvature="0" /></g></g><g
           id="g98"><g
             id="g100"
             clip-path="url(#clipPath102)" /></g><g
           id="g106"><g
             id="g108"
             clip-path="url(#clipPath110)"><text
               transform="matrix(1,0,0,-1,155.14,525.01)"
               id="text114"><tspan
                 style="font-size:10.46004009px;font-variant:normal;font-weight:normal;writing-mode:lr-tb;fill:#000000;fill-opacity:1;fill-rule:nonzero;stroke:none;font-family:Ubuntu;-inkscape-font-specification:Ubuntu"
                 x="0 5.9726133 10.17748 14.382346 20.54324 23.116341 27.132925 31.149511 33.72261 36.295712"
                 y="0"
                 sodipodi:role="line"
                 id="tspan116">http://...</tspan></text>
</g></g><g
           id="g118"><g
             id="g120"
             clip-path="url(#clipPath122)" /></g><g
           id="g126"><g
             id="g128"
             clip-path="url(#clipPath130)" /></g><g
           id="g134"><g
             id="g136"
             clip-path="url(#clipPath138)" /></g><g
           id="g142"><g
             id="g144"
             clip-path="url(#clipPath146)"><path
               d="m 257.13,453.53 c 13.74,-1.16 28.06,-1.46 42.96,-0.87 11.95,0.58 23.32,0.58 34.11,0 6.57,-0.59 13.72,-0.59 21.45,0 11.03,-0.59 22.65,-0.29 34.84,0.87 1.67,0.67 2.19,-1.67 2.62,-2.62 -1.16,-7.69 -1.46,-14.79 -0.87,-21.32 0.58,-13.79 0.58,-28.17 0,-43.12 -0.59,-8.76 -0.59,-16.94 0,-24.53 -0.59,-15.38 -0.29,-30.18 0.87,-44.39 -0.79,-0.85 -1.65,-1.86 -2.62,-2.62 -11.94,0 -23.29,0.29 -34.07,0.87 -14.24,0.59 -29.06,0.59 -44.46,0 -10.71,-0.58 -20.85,-0.58 -30.4,0 -8.72,-0.58 -16.87,-0.87 -24.43,-0.87 -2.06,-0.81 -2.31,1.6 -2.62,2.62 0,10.17 0.29,20.92 0.87,32.26 0.59,17.99 0.59,35.4 0,52.23 -0.58,8.45 -0.58,17.48 0,27.09 -0.58,6.68 -0.87,13.94 -0.87,21.78 0.6,0.62 0.86,1.24 0.77,1.85 0.62,0.6 1.23,0.86 1.85,0.77"
               style="fill:#ffffff;fill-opacity:1;fill-rule:nonzero;stroke:none"
               id="path150"
               inkscape:connector-curvature="0" /><path
               d="m 257.13,453.53 c 10.51,-1.16 21.61,-1.46 33.29,-0.87 14.19,0.58 27.8,0.58 40.83,0 7.48,-0.59 15.55,-0.59 24.2,0 11.1,-0.59 22.78,-0.29 35.04,0.87 1.65,0.3 2.35,-1.18 2.62,-2.62 -1.16,-9.34 -1.46,-18.1 -0.87,-26.28 0.58,-8.47 0.58,-17.53 0,-27.17 -0.59,-17.45 -0.59,-34.32 0,-50.6 -0.59,-10.35 -0.29,-20.12 0.87,-29.31 -0.84,-1.16 -0.5,-2.98 -2.62,-2.62 -8.55,0 -16.53,0.29 -23.92,0.87 -16.21,0.59 -33.01,0.59 -50.38,0 -6.47,-0.58 -12.35,-0.58 -17.65,0 -14.39,-0.58 -28.19,-0.87 -41.41,-0.87 -0.79,0.77 -3.17,0.7 -2.62,2.62 0,14.59 0.29,29.76 0.87,45.52 0.59,7.17 0.59,13.76 0,19.77 -0.58,6.75 -0.58,14.07 0,21.98 -0.58,14.78 -0.87,30.15 -0.87,46.09 0.6,0.62 0.86,1.24 0.77,1.85 0.62,0.6 1.23,0.86 1.85,0.77"
               style="fill:none;stroke:#000000;stroke-width:1.74000001;stroke-linecap:round;stroke-linejoin:round;stroke-miterlimit:10;stroke-opacity:1;stroke-dasharray:none"
               id="path152"
               inkscape:connector-curvature="0" /></g></g><g
           id="g154"><g
             id="g156"
             clip-path="url(#clipPath158)" /></g><g
           id="g162"><g
             id="g164"
             clip-path="url(#clipPath166)"><path
               d="m 303.74,396.87 c -0.08,-0.3 0.36,0.71 2.53,1.87 1.33,1.21 4.01,2.36 6.95,2.05 2.56,-0.67 4.47,-0.58 6.94,-1.87 2.32,-1.37 1.99,-2.83 2.54,-2.05 0.58,-3.49 0.58,-12.2 0,-26.15 -0.86,-0.66 -1.93,1.6 -2.93,2.06 -1.29,0.48 -4.89,2.64 -6.55,1.86 -1.83,-0.84 -4.25,-1.82 -6.56,-2.06 -2.56,-1.23 -2.29,-1.01 -2.92,-1.86 0.58,4.65 0.58,13.36 0,26.15"
               style="fill:none;stroke:#000000;stroke-width:3.26999998;stroke-linecap:round;stroke-linejoin:round;stroke-miterlimit:10;stroke-opacity:1;stroke-dasharray:none"
               id="path170"
               inkscape:connector-curvature="0" /><path
               d="m 323.35,396.87 c -0.08,-0.3 0.56,0.84 2.83,2.05 1.42,1.28 4.1,2.42 6.65,1.86 2.17,-0.92 4.08,-0.82 6.65,-2.05 2.41,-1.31 2.28,-2.64 2.83,-1.86 0.58,-3.49 0.58,-12.2 0,-26.15 -0.86,-0.66 -2.06,1.44 -3.13,1.83 -1.35,0.41 -4.95,2.56 -6.35,2.09 -1.56,-0.53 -3.98,-1.52 -6.35,-1.83 -2.63,-1.31 -2.5,-1.24 -3.13,-2.09 0.58,4.65 0.58,13.36 0,26.15"
               style="fill:none;stroke:#000000;stroke-width:3.26999998;stroke-linecap:round;stroke-linejoin:round;stroke-miterlimit:10;stroke-opacity:1;stroke-dasharray:none"
               id="path172"
               inkscape:connector-curvature="0" /></g></g><g
           id="g174"><g
             id="g176"
             clip-path="url(#clipPath178)" /></g><g
           id="g182"><g
             id="g184"
             clip-path="url(#clipPath186)" /></g><g
           id="g190"><g
             id="g192"
             clip-path="url(#clipPath194)" /></g><g
           id="g198"><g
             id="g200"
             clip-path="url(#clipPath202)" /></g><g
           id="g206"><g
             id="g208"
             clip-path="url(#clipPath210)" /></g><g
           id="g214"><g
             id="g216"
             clip-path="url(#clipPath218)"><path
               d="m 424.49,453.53 c 13.74,-1.16 28.06,-1.46 42.96,-0.87 11.95,0.58 23.32,0.58 34.11,0 6.57,-0.59 13.72,-0.59 21.45,0 11.03,-0.59 22.65,-0.29 34.84,0.87 1.67,0.67 2.19,-1.67 2.62,-2.62 -1.16,-7.69 -1.46,-14.79 -0.87,-21.32 0.58,-13.79 0.58,-28.17 0,-43.12 -0.59,-8.76 -0.59,-16.94 0,-24.53 -0.59,-15.38 -0.29,-30.18 0.87,-44.39 -0.79,-0.85 -1.65,-1.86 -2.62,-2.62 -11.94,0 -23.29,0.29 -34.07,0.87 -14.24,0.59 -29.06,0.59 -44.46,0 -10.71,-0.58 -20.85,-0.58 -30.4,0 -8.72,-0.58 -16.87,-0.87 -24.43,-0.87 -2.06,-0.81 -2.31,1.6 -2.62,2.62 0,10.17 0.29,20.92 0.87,32.26 0.59,17.99 0.59,35.4 0,52.23 -0.58,8.45 -0.58,17.48 0,27.09 -0.58,6.68 -0.87,13.94 -0.87,21.78 0.6,0.62 0.86,1.24 0.77,1.85 0.62,0.6 1.23,0.86 1.85,0.77"
               style="fill:#ffffff;fill-opacity:1;fill-rule:nonzero;stroke:none"
               id="path222"
               inkscape:connector-curvature="0" /><path
               d="m 424.49,453.53 c 10.51,-1.16 21.61,-1.46 33.29,-0.87 14.19,0.58 27.8,0.58 40.83,0 7.48,-0.59 15.55,-0.59 24.2,0 11.1,-0.59 22.78,-0.29 35.04,0.87 1.65,0.3 2.35,-1.18 2.62,-2.62 -1.16,-9.34 -1.46,-18.1 -0.87,-26.28 0.58,-8.47 0.58,-17.53 0,-27.17 -0.59,-17.45 -0.59,-34.32 0,-50.6 -0.59,-10.35 -0.29,-20.12 0.87,-29.31 -0.84,-1.16 -0.5,-2.98 -2.62,-2.62 -8.55,0 -16.53,0.29 -23.92,0.87 -16.21,0.59 -33.01,0.59 -50.38,0 -6.47,-0.58 -12.35,-0.58 -17.65,0 -14.39,-0.58 -28.19,-0.87 -41.41,-0.87 -0.79,0.77 -3.17,0.7 -2.62,2.62 0,14.59 0.29,29.76 0.87,45.52 0.59,7.17 0.59,13.76 0,19.77 -0.58,6.75 -0.58,14.07 0,21.98 -0.58,14.78 -0.87,30.15 -0.87,46.09 0.6,0.62 0.86,1.24 0.77,1.85 0.62,0.6 1.23,0.86 1.85,0.77"
               style="fill:none;stroke:#000000;stroke-width:1.74000001;stroke-linecap:round;stroke-linejoin:round;stroke-miterlimit:10;stroke-opacity:1;stroke-dasharray:none"
               id="path224"
               inkscape:connector-curvature="0" /></g></g><g
           id="g226"><g
             id="g228"
             clip-path="url(#clipPath230)" /></g><g
           id="g234"><g
             id="g236"
             clip-path="url(#clipPath238)"><path
               d="m 490.65,404.28 c 0.6,0.59 0.09,0.4 -1.53,-0.55 -2.24,-1.64 -8.34,-6.43 -18.31,-14.38 -0.67,-0.82 -1.96,-2.83 -0.45,-3.68 0.18,-0.66 3.1,-0.62 3.68,-0.46 3.14,2.59 8.7,6.97 16.69,13.13 3.14,-1.43 8.7,-5.8 16.69,-13.13 1.5,-0.32 2.05,-0.03 3.69,0.46 0.36,1.84 0.58,2.35 -0.46,3.68 -0.33,1.3 -2.63,3.1 -6.88,5.41 0.58,1.66 0.6,4.39 0.04,8.21 -0.23,1.3 0.19,1 -1.31,1.31 0.42,0.58 -0.5,0.58 -2.74,0 -1.07,0.07 -0.31,-0.27 -1.18,-1.31 0.58,0.18 0.58,-1.2 0,-4.14 -0.23,1.22 -2.31,2.85 -6.23,4.9 0.57,0.58 0,0.76 -1.7,0.55"
               style="fill:#000000;fill-opacity:1;fill-rule:nonzero;stroke:none"
               id="path242"
               inkscape:connector-curvature="0" /><path
               d="m 490.73,395.72 c -1.8,-1.29 -7.03,-5.4 -15.69,-12.32 0.59,-1.97 0.59,-7.65 0,-17.04 2.25,0.58 6.18,0.58 11.77,0 0.58,2.47 0.58,6.83 0,13.08 1.6,0.58 4.21,0.58 7.85,0 0.58,-1.31 0.58,-5.67 0,-13.08 2.25,0.58 6.17,0.58 11.76,0 0.59,3.13 0.59,8.81 0,17.04 -1.8,2.45 -7.03,6.56 -15.69,12.32"
               style="fill:#000000;fill-opacity:1;fill-rule:nonzero;stroke:none"
               id="path244"
               inkscape:connector-curvature="0" /></g></g><g
           id="g246"><g
             id="g248"
             clip-path="url(#clipPath250)" /></g><g
           id="g254"><g
             id="g256"
             clip-path="url(#clipPath258)" /></g><g
           id="g262"><g
             id="g264"
             clip-path="url(#clipPath266)" /></g><g
           id="g270"><g
             id="g272"
             clip-path="url(#clipPath274)" /></g><g
           id="g278"><g
             id="g280"
             clip-path="url(#clipPath282)" /></g><g
           id="g286"><g
             id="g288"
             clip-path="url(#clipPath290)" /></g><g
           id="g294"><g
             id="g296"
             clip-path="url(#clipPath298)" /></g><g
           id="g302"><g
             id="g304"
             clip-path="url(#clipPath306)" /></g><g
           id="g310"><g
             id="g312"
             clip-path="url(#clipPath314)" /></g><g
           id="g318"><g
             id="g320"
             clip-path="url(#clipPath322)" /></g></g></g></g></svg>